<!-- https://www.logomaker.com.cn/editor?icon_id=25082&industry_id=1&title=%E5%89%8D%E7%AB%AF%E7%9B%91%E6%8E%A7&template_id=2698&slogan=Front%20end%20monitoring&letter_id=6&industry_tag=%E5%88%86%E6%9E%90%20%E5%A4%A7%E6%95%B0%E6%8D%AE%20%E6%83%B3%E8%B1%A1%E5%8A%9B&sceneSelect=ab&page=download -->
<svg id="svg_canvas" data-noselect="" viewBox="0 0 240 220" preserveAspectRatio="none" version="1.1" xmlns="http://www.w3.org/2000/svg" xmlns:xlink="http://www.w3.org/1999/xlink"><defs><filter id="filter_shadow_shape_JZfIU9uh3q" width="300%" height="300%" x="-100%" y="-100%">
              <feDropShadow dx="0" dy="0" stdDeviation="0.4" flood-color="#000000" flood-opacity="0.4"></feDropShadow>
            </filter><filter id="filter_shadow_shape_Jpb3xzUR1b" width="300%" height="300%" x="-100%" y="-100%">
              <feDropShadow dx="0" dy="0" stdDeviation="0.4" flood-color="#000000" flood-opacity="0.4"></feDropShadow>
            </filter><filter id="filter_shadow_shape_PTgxePPlW6" width="300%" height="300%" x="-100%" y="-100%">
              <feDropShadow dx="0" dy="0" stdDeviation="0.4" flood-color="#000000" flood-opacity="0.4"></feDropShadow>
            </filter></defs> <g id="background" data-noselect=""><!----> <!----></g> <g id="shape_JZfIU9uh3q" transform="translate(71.56609380028249,33.44127824172) rotate(0,46.4339061997175,46.4339061997175) scale(1,1)" filter="url(#filter_shadow_shape_JZfIU9uh3q)" style="cursor: move; opacity: 1;"><g><rect fill="rgba(0,0,0,0)" width="112.867812399435" height="112.867812399435" x="-10" y="-10"></rect><svg version="1.1" id="图层_1" xmlns="http://www.w3.org/2000/svg" xmlns:xlink="http://www.w3.org/1999/xlink" x="0px" y="0px" width="92.867812399435" height="92.867812399435" viewBox="9.75 8.760000228881836 181.25 181.25" style="enable-background:new 0 0 200 200;" xml:space="preserve" class="style-removed" preserveAspectRatio="none" data-parent="shape_JZfIU9uh3q">

<g>
	<path d="M125.48,103.96l-31.07,16.5c-20.73,11.02-28.68,36.98-17.66,57.71l6.28,11.82c0.34,0.02,0.7,0.02,1.04,0.02
		h32.62c35.05,0,64.64-24.59,72.35-57.37l-5.84-11C172.17,100.9,146.21,92.96,125.48,103.96z M108.9,176.81
		c-9.41,0-17.03-7.62-17.03-17.03c0-9.41,7.62-17.03,17.03-17.03s17.03,7.62,17.03,17.03C125.92,169.18,118.3,176.81,108.9,176.81z
		 M142.83,148.27l7.37-31.39l6.43,8.73l-1.84,11.8l12.13-1.92l7.04,7.22L142.83,148.27z" fill="#FFFFFF" stroke-width="0"></path>
	<path d="M116.68,8.76H84.06C43.2,8.76,9.75,42.21,9.75,83.09v32.6c0,32.21,20.75,59.78,49.55,70.04
		c-13.55-30.83-1.12-67.66,29.07-83.71L95.93,98L90.7,75.39c-6.27-0.01-11.94-4.31-13.42-10.69c-1.72-7.43,2.91-14.85,10.34-16.57
		c7.43-1.72,14.85,2.91,16.57,10.34c1.47,6.37-1.73,12.73-7.36,15.49l4.85,20.98l0.01,0l11.9-6.32c26.13-13.89,57.75-8,77.41,12.31
		V83.09C191,42.21,157.55,8.76,116.68,8.76z" fill="#FFFFFF" stroke-width="0"></path>
</g>
</svg></g></g><g id="shape_Jpb3xzUR1b" transform="translate(-14,0.26272175828000854) rotate(0,132,154.796) scale(1,1)" filter="url(#filter_shadow_shape_Jpb3xzUR1b)" style="cursor: move; opacity: 1;"><g><svg xmlns="http://www.w3.org/2000/svg" version="1.1" xmlns:xlink="http://www.w3.org/1999/xlink" width="352" height="309.592" viewBox="0 0 352 309.592" data-parent="shape_Jpb3xzUR1b"><rect fill="rgba(0,0,0,0)" width="176" height="44" x="44" y="132.796"></rect><g data-width="176" transform="translate(44, 0)"><path d="M3.12-22.13L23.10-22.13L23.10-2.82L16.37-2.82L17.47-4.00L17.47-7.17L9.50-7.17L9.50-2.82L3.92-2.82L3.92-21.30L3.12-22.13ZM42.68-26.49L42.68-22.62Q42.46-23.14 41.98-23.30Q41.49-23.45 41.10-23.45L41.10-23.45L1.36-23.45L1.36-27.24L2.77-26.49L8.76-26.49L8.18-27.98L7.35-28.86L13.82-28.86L14.74-26.49L29.26-26.49L30.23-28.86L36.70-28.86L35.90-27.98L35.29-26.49L42.68-26.49ZM32.96-22.13L40.61-22.13L40.61-2.82L32.65-2.82L33.75-4.00L33.75-21.25L32.96-22.13ZM31.15-20.64L31.15-4.05L25.61-4.05L25.61-19.76L24.82-20.64L31.15-20.64ZM9.50-13.11L9.50-10.16L17.47-10.16L17.47-13.11L9.50-13.11ZM9.50-19.10L9.50-16.15L17.47-16.15L17.47-19.10L9.50-19.10Z" transform="translate(0 169.796) " fill="rgb(71, 71, 71)" stroke="rgb(71, 71, 71)" stroke-width="8.073" stroke-miterlimit="3" data-glyph-w="44" data-glyph-h="44" data-glyph-ascender="37.796" data-glyph-descender="-6.204"></path><path d="M42.64-19.49L42.64-16.06Q42.42-16.63 41.98-16.81Q41.54-16.98 41.18-16.98L41.18-16.98L33.44-16.94L32.78-14.96L42.59-14.96L42.59-3.08L36.87-3.08L37.62-4.22L37.62-12.45L35.68-12.45L35.68-3.12L31.86-3.12L31.86-12.45L29.92-12.45L29.92-3.12L26.18-3.12L26.18-12.45L24.16-12.45L24.16-3.12L19.36-3.12L19.36-13.60L18.74-14.96L28.07-14.96L28.73-16.94L19.23-16.94L19.23-20.28L20.50-19.49L42.64-19.49ZM17.16-26.88L17.16-23.01Q16.98-23.54 16.50-23.69Q16.02-23.85 15.62-23.85L15.62-23.85L15.44-23.85L11.88-6.29L18.13-6.29L18.13-2.46Q17.91-2.95 17.42-3.10Q16.94-3.26 16.54-3.26L16.54-3.26L1.36-3.26L1.36-7.04L2.77-6.29L7.35-6.29L8.01-9.94L5.94-9.94L3.21-19.89L2.46-20.77L7.39-20.77L8.93-14.74L10.65-23.85L2.33-23.85L2.33-27.68L3.70-26.88L7.04-26.88L7.04-28.38L6.25-29.22L12.32-29.22L12.32-26.88L17.16-26.88ZM36.92-29.08L42.50-29.08L42.50-21.08L19.36-21.08L19.36-28.03L18.74-29.08L24.38-29.08L24.38-23.45L28.69-23.45L28.69-28.03L28.12-29.08L33.62-29.08L33.62-23.45L37.49-23.45L37.49-28.03L36.92-29.08Z" transform="translate(44 169.796) " fill="rgb(71, 71, 71)" stroke="rgb(71, 71, 71)" stroke-width="8.073" stroke-miterlimit="3" data-glyph-w="44" data-glyph-h="44" data-glyph-ascender="37.796" data-glyph-descender="-6.204"></path><path d="M2.38-13.99L41.54-13.99L41.54-6.29L42.64-6.29L42.64-2.42Q42.42-2.95 41.95-3.10Q41.49-3.26 41.10-3.26L41.10-3.26L1.36-3.26L1.36-7.04L2.73-6.29L3.17-6.29L3.17-13.16L2.38-13.99ZM42.59-26.18L42.59-22.26Q42.37-22.84 41.91-22.99Q41.45-23.14 41.05-23.14L41.05-23.14L25.61-23.14L23.36-16.06L16.98-16.06L20.68-28.47L19.89-29.30L27.54-29.30L26.53-26.18L42.59-26.18ZM15.44-29.30L15.44-15.00L9.86-15.00L9.86-28.47L9.06-29.30L15.44-29.30ZM7.79-28.29L7.79-15.93L2.16-15.93L2.16-27.41L1.36-28.29L7.79-28.29ZM33.44-15.58L28.86-22.09L36.43-22.09L35.64-21.21L39.86-15.58L33.44-15.58ZM19.71-11L19.71-6.29L25.17-6.29L25.17-11L19.71-11ZM8.80-11L8.80-6.29L14.04-6.29L14.04-11L8.80-11ZM30.80-11L30.80-6.29L35.86-6.29L35.86-11L30.80-11Z" transform="translate(88 169.796) " fill="rgb(71, 71, 71)" stroke="rgb(71, 71, 71)" stroke-width="8.073" stroke-miterlimit="3" data-glyph-w="44" data-glyph-h="44" data-glyph-ascender="37.796" data-glyph-descender="-6.204"></path><path d="M13.86-25.34L13.86-21.47Q13.64-22 13.16-22.18Q12.67-22.35 12.28-22.35L12.28-22.35L11.09-22.35L11.09-14.70L12.58-15.00L13.86-16.24L13.86-11.09L11.09-10.56L11.09-3.30L4.36-3.30L5.46-4.44L5.46-9.46L2.77-8.93L1.36-7.92L1.36-12.63L5.46-13.46L5.46-22.35L1.36-22.35L1.36-26.14L2.73-25.34L5.46-25.34L5.46-28.47L4.66-29.30L11.09-29.30L11.09-25.34L13.86-25.34ZM41.54-14.34L41.54-10.47Q41.32-11.04 40.83-11.20Q40.35-11.35 39.95-11.35L39.95-11.35L31.68-11.35L31.68-6.25L42.59-6.25L42.59-2.38Q42.37-2.90 41.91-3.06Q41.45-3.21 41.05-3.21L41.05-3.21L15.36-3.21L15.36-6.95L16.68-6.25L26.09-6.25L26.09-11.35L16.24-11.35L16.24-15.09L17.64-14.34L41.54-14.34ZM42.64-27.02L42.64-22.04L36.96-22.04L36.96-24.02L20.99-24.02L20.99-22.04L15.36-22.04L15.36-26.00L14.70-27.02L26.09-27.02L26.09-28.51L25.26-29.30L31.68-29.30L31.68-27.02L42.64-27.02ZM35.51-15.75L31.68-20.90L39.51-20.90L38.50-20.37L42.06-15.75L35.51-15.75ZM26.71-20.90L22.88-15.75L16.32-15.75L19.89-20.37L18.92-20.90L26.71-20.90Z" transform="translate(132 169.796) " fill="rgb(71, 71, 71)" stroke="rgb(71, 71, 71)" stroke-width="8.073" stroke-miterlimit="3" data-glyph-w="44" data-glyph-h="44" data-glyph-ascender="37.796" data-glyph-descender="-6.204"></path></g><g data-width="176" transform="translate(44, 0)"><path d="M3.12-22.13L23.10-22.13L23.10-2.82L16.37-2.82L17.47-4.00L17.47-7.17L9.50-7.17L9.50-2.82L3.92-2.82L3.92-21.30L3.12-22.13ZM42.68-26.49L42.68-22.62Q42.46-23.14 41.98-23.30Q41.49-23.45 41.10-23.45L41.10-23.45L1.36-23.45L1.36-27.24L2.77-26.49L8.76-26.49L8.18-27.98L7.35-28.86L13.82-28.86L14.74-26.49L29.26-26.49L30.23-28.86L36.70-28.86L35.90-27.98L35.29-26.49L42.68-26.49ZM32.96-22.13L40.61-22.13L40.61-2.82L32.65-2.82L33.75-4.00L33.75-21.25L32.96-22.13ZM31.15-20.64L31.15-4.05L25.61-4.05L25.61-19.76L24.82-20.64L31.15-20.64ZM9.50-13.11L9.50-10.16L17.47-10.16L17.47-13.11L9.50-13.11ZM9.50-19.10L9.50-16.15L17.47-16.15L17.47-19.10L9.50-19.10Z" transform="translate(0 169.796) " fill="#ffffff" stroke="#ffffff" stroke-width="0.073" data-glyph-w="44" data-glyph-h="44" data-glyph-ascender="37.796" data-glyph-descender="-6.204"></path><path d="M42.64-19.49L42.64-16.06Q42.42-16.63 41.98-16.81Q41.54-16.98 41.18-16.98L41.18-16.98L33.44-16.94L32.78-14.96L42.59-14.96L42.59-3.08L36.87-3.08L37.62-4.22L37.62-12.45L35.68-12.45L35.68-3.12L31.86-3.12L31.86-12.45L29.92-12.45L29.92-3.12L26.18-3.12L26.18-12.45L24.16-12.45L24.16-3.12L19.36-3.12L19.36-13.60L18.74-14.96L28.07-14.96L28.73-16.94L19.23-16.94L19.23-20.28L20.50-19.49L42.64-19.49ZM17.16-26.88L17.16-23.01Q16.98-23.54 16.50-23.69Q16.02-23.85 15.62-23.85L15.62-23.85L15.44-23.85L11.88-6.29L18.13-6.29L18.13-2.46Q17.91-2.95 17.42-3.10Q16.94-3.26 16.54-3.26L16.54-3.26L1.36-3.26L1.36-7.04L2.77-6.29L7.35-6.29L8.01-9.94L5.94-9.94L3.21-19.89L2.46-20.77L7.39-20.77L8.93-14.74L10.65-23.85L2.33-23.85L2.33-27.68L3.70-26.88L7.04-26.88L7.04-28.38L6.25-29.22L12.32-29.22L12.32-26.88L17.16-26.88ZM36.92-29.08L42.50-29.08L42.50-21.08L19.36-21.08L19.36-28.03L18.74-29.08L24.38-29.08L24.38-23.45L28.69-23.45L28.69-28.03L28.12-29.08L33.62-29.08L33.62-23.45L37.49-23.45L37.49-28.03L36.92-29.08Z" transform="translate(44 169.796) " fill="#ffffff" stroke="#ffffff" stroke-width="0.073" data-glyph-w="44" data-glyph-h="44" data-glyph-ascender="37.796" data-glyph-descender="-6.204"></path><path d="M2.38-13.99L41.54-13.99L41.54-6.29L42.64-6.29L42.64-2.42Q42.42-2.95 41.95-3.10Q41.49-3.26 41.10-3.26L41.10-3.26L1.36-3.26L1.36-7.04L2.73-6.29L3.17-6.29L3.17-13.16L2.38-13.99ZM42.59-26.18L42.59-22.26Q42.37-22.84 41.91-22.99Q41.45-23.14 41.05-23.14L41.05-23.14L25.61-23.14L23.36-16.06L16.98-16.06L20.68-28.47L19.89-29.30L27.54-29.30L26.53-26.18L42.59-26.18ZM15.44-29.30L15.44-15.00L9.86-15.00L9.86-28.47L9.06-29.30L15.44-29.30ZM7.79-28.29L7.79-15.93L2.16-15.93L2.16-27.41L1.36-28.29L7.79-28.29ZM33.44-15.58L28.86-22.09L36.43-22.09L35.64-21.21L39.86-15.58L33.44-15.58ZM19.71-11L19.71-6.29L25.17-6.29L25.17-11L19.71-11ZM8.80-11L8.80-6.29L14.04-6.29L14.04-11L8.80-11ZM30.80-11L30.80-6.29L35.86-6.29L35.86-11L30.80-11Z" transform="translate(88 169.796) " fill="#ffffff" stroke="#ffffff" stroke-width="0.073" data-glyph-w="44" data-glyph-h="44" data-glyph-ascender="37.796" data-glyph-descender="-6.204"></path><path d="M13.86-25.34L13.86-21.47Q13.64-22 13.16-22.18Q12.67-22.35 12.28-22.35L12.28-22.35L11.09-22.35L11.09-14.70L12.58-15.00L13.86-16.24L13.86-11.09L11.09-10.56L11.09-3.30L4.36-3.30L5.46-4.44L5.46-9.46L2.77-8.93L1.36-7.92L1.36-12.63L5.46-13.46L5.46-22.35L1.36-22.35L1.36-26.14L2.73-25.34L5.46-25.34L5.46-28.47L4.66-29.30L11.09-29.30L11.09-25.34L13.86-25.34ZM41.54-14.34L41.54-10.47Q41.32-11.04 40.83-11.20Q40.35-11.35 39.95-11.35L39.95-11.35L31.68-11.35L31.68-6.25L42.59-6.25L42.59-2.38Q42.37-2.90 41.91-3.06Q41.45-3.21 41.05-3.21L41.05-3.21L15.36-3.21L15.36-6.95L16.68-6.25L26.09-6.25L26.09-11.35L16.24-11.35L16.24-15.09L17.64-14.34L41.54-14.34ZM42.64-27.02L42.64-22.04L36.96-22.04L36.96-24.02L20.99-24.02L20.99-22.04L15.36-22.04L15.36-26.00L14.70-27.02L26.09-27.02L26.09-28.51L25.26-29.30L31.68-29.30L31.68-27.02L42.64-27.02ZM35.51-15.75L31.68-20.90L39.51-20.90L38.50-20.37L42.06-15.75L35.51-15.75ZM26.71-20.90L22.88-15.75L16.32-15.75L19.89-20.37L18.92-20.90L26.71-20.90Z" transform="translate(132 169.796) " fill="#ffffff" stroke="#ffffff" stroke-width="0.073" data-glyph-w="44" data-glyph-h="44" data-glyph-ascender="37.796" data-glyph-descender="-6.204"></path></g></svg></g></g><g id="shape_PTgxePPlW6" transform="translate(-7,125.05872175828) rotate(0,125,60) scale(1,1)" filter="url(#filter_shadow_shape_PTgxePPlW6)" style="cursor: move; opacity: 1;"><g><svg xmlns="http://www.w3.org/2000/svg" version="1.1" xmlns:xlink="http://www.w3.org/1999/xlink" width="283" height="120" viewBox="0 0 283 120" data-parent="shape_PTgxePPlW6"><rect fill="rgba(0,0,0,0)" width="217" height="16" x="16.5" y="52"></rect><g data-width="216.84299999999996" transform="translate(16.57850000000002, 0)"><path d="M5.43-9.59Q4.87-9.59 4.38-9.31Q3.89-9.03 3.61-8.54Q3.32-8.05 3.32-7.47L3.32-7.47L3.32-5.68L11.57-5.68L11.57-3.91L3.32-3.91L3.32 0L0.68 0L0.68-7.47Q0.68-8.53 1.20-9.42Q1.72-10.31 2.61-10.83Q3.50-11.35 4.55-11.35L4.55-11.35L11.57-11.35L11.57-9.59L5.43-9.59Z" transform="translate(0 66) " fill="#ffffff" stroke="#ffffff" stroke-width="0.028" data-glyph-w="11.88" data-glyph-h="19.8" data-glyph-ascender="16.5" data-glyph-descender="-3.3000000000000003"></path><path d="M11.86-7.67Q11.86-6.63 11.35-5.78Q10.84-4.92 9.97-4.44L9.97-4.44L11.86 0L9.22 0L7.51-3.98L3.33-3.98L3.33 0L0.68 0L0.68-11.35L8.17-11.35Q9.17-11.35 10.02-10.86Q10.87-10.36 11.37-9.52Q11.86-8.68 11.86-7.67L11.86-7.67ZM3.33-9.59L3.33-5.74L7.29-5.74Q8.09-5.74 8.65-6.30Q9.22-6.86 9.22-7.67L9.22-7.67Q9.22-8.46 8.65-9.03Q8.09-9.59 7.29-9.59L7.29-9.59L3.33-9.59Z" transform="translate(11.88 66) " fill="#ffffff" stroke="#ffffff" stroke-width="0.028" data-glyph-w="12.259500000000001" data-glyph-h="19.8" data-glyph-ascender="16.5" data-glyph-descender="-3.3000000000000003"></path><path d="M0.68-8.78Q0.68-9.47 1.02-10.07Q1.37-10.66 1.96-11.01Q2.56-11.35 3.25-11.35L3.25-11.35L8.98-11.35Q9.69-11.35 10.28-11.01Q10.87-10.66 11.22-10.07Q11.57-9.47 11.57-8.78L11.57-8.78L11.57-2.59Q11.57-1.90 11.22-1.30Q10.87-0.69 10.28-0.35Q9.69 0 8.98 0L8.98 0L3.25 0Q2.56 0 1.96-0.35Q1.37-0.71 1.02-1.30Q0.68-1.90 0.68-2.59L0.68-2.59L0.68-8.78ZM7.59-1.78Q8.13-1.78 8.52-2.17Q8.91-2.56 8.91-3.10L8.91-3.10L8.91-8.25Q8.91-8.81 8.52-9.20Q8.13-9.59 7.59-9.59L7.59-9.59L4.65-9.59Q4.09-9.59 3.70-9.20Q3.32-8.81 3.32-8.25L3.32-8.25L3.32-3.10Q3.32-2.56 3.70-2.17Q4.09-1.78 4.65-1.78L4.65-1.78L7.59-1.78Z" transform="translate(24.1395 66) " fill="#ffffff" stroke="#ffffff" stroke-width="0.028" data-glyph-w="12.243" data-glyph-h="19.8" data-glyph-ascender="16.5" data-glyph-descender="-3.3000000000000003"></path><path d="M8.93-3.63L8.93-11.35L11.57-11.35L11.57 0L8.93 0L3.32-7.72L3.32 0L0.68 0L0.68-11.35L3.32-11.35L8.93-3.63Z" transform="translate(36.3825 66) " fill="#ffffff" stroke="#ffffff" stroke-width="0.028" data-glyph-w="12.243" data-glyph-h="19.8" data-glyph-ascender="16.5" data-glyph-descender="-3.3000000000000003"></path><path d="M0.18-11.37L11.09-11.37L11.09-9.59L6.96-9.59L6.96 0L4.31 0L4.31-9.59L0.18-9.59L0.18-11.37Z" transform="translate(48.6255 66) " fill="#ffffff" stroke="#ffffff" stroke-width="0.028" data-glyph-w="11.2695" data-glyph-h="19.8" data-glyph-ascender="16.5" data-glyph-descender="-3.3000000000000003"></path><path d="" transform="translate(59.895 66) " fill="#ffffff" stroke="#ffffff" stroke-width="0.028" data-glyph-w="6.567" data-glyph-h="16.5" data-glyph-ascender="14.520000000000001" data-glyph-descender="-1.98"></path><path d="M5.43-9.59Q4.87-9.59 4.38-9.31Q3.89-9.03 3.61-8.54Q3.32-8.05 3.32-7.47L3.32-7.47L3.32-6.57L11.57-6.57L11.57-4.80L3.32-4.80L3.32-3.89Q3.32-3.32 3.61-2.83Q3.89-2.34 4.38-2.06Q4.87-1.78 5.43-1.78L5.43-1.78L11.57-1.78L11.57 0L4.55 0Q3.50 0 2.61-0.53Q1.72-1.06 1.20-1.95Q0.68-2.84 0.68-3.89L0.68-3.89L0.68-7.47Q0.68-8.53 1.20-9.42Q1.72-10.31 2.61-10.83Q3.50-11.35 4.55-11.35L4.55-11.35L11.57-11.35L11.57-9.59L5.43-9.59Z" transform="translate(66.462 66) " fill="#ffffff" stroke="#ffffff" stroke-width="0.028" data-glyph-w="12.243" data-glyph-h="19.8" data-glyph-ascender="16.5" data-glyph-descender="-3.3000000000000003"></path><path d="M8.93-3.63L8.93-11.35L11.57-11.35L11.57 0L8.93 0L3.32-7.72L3.32 0L0.68 0L0.68-11.35L3.32-11.35L8.93-3.63Z" transform="translate(78.705 66) " fill="#ffffff" stroke="#ffffff" stroke-width="0.028" data-glyph-w="12.243" data-glyph-h="19.8" data-glyph-ascender="16.5" data-glyph-descender="-3.3000000000000003"></path><path d="M0.68-11.35L7.62-11.35Q8.70-11.35 9.60-10.82Q10.51-10.30 11.04-9.39Q11.57-8.48 11.57-7.41L11.57-7.41L11.57-3.94Q11.57-2.87 11.04-1.96Q10.51-1.06 9.60-0.53Q8.70 0 7.62 0L7.62 0L0.68 0L0.68-11.35ZM6.75-1.78Q7.33-1.78 7.83-2.07Q8.33-2.36 8.62-2.86Q8.91-3.37 8.91-3.94L8.91-3.94L8.91-7.41Q8.91-8.00 8.62-8.51Q8.33-9.01 7.83-9.30Q7.33-9.59 6.75-9.59L6.75-9.59L3.32-9.59L3.32-1.78L6.75-1.78Z" transform="translate(90.948 66) " fill="#ffffff" stroke="#ffffff" stroke-width="0.028" data-glyph-w="12.243" data-glyph-h="19.8" data-glyph-ascender="16.5" data-glyph-descender="-3.3000000000000003"></path><path d="" transform="translate(103.19099999999999 66) " fill="#ffffff" stroke="#ffffff" stroke-width="0.028" data-glyph-w="6.567" data-glyph-h="16.5" data-glyph-ascender="14.520000000000001" data-glyph-descender="-1.98"></path><path d="M7.03-6.04L10.54-11.37L13.20-11.37L13.20 0L10.54 0L10.54-7.39L8.35-4.06L5.73-4.06L3.42-7.47L3.42 0L0.76 0L0.76-11.37L3.42-11.37L7.03-6.04Z" transform="translate(109.75799999999998 66) " fill="#ffffff" stroke="#ffffff" stroke-width="0.028" data-glyph-w="13.959000000000001" data-glyph-h="19.8" data-glyph-ascender="16.5" data-glyph-descender="-3.3000000000000003"></path><path d="M0.68-8.78Q0.68-9.47 1.02-10.07Q1.37-10.66 1.96-11.01Q2.56-11.35 3.25-11.35L3.25-11.35L8.98-11.35Q9.69-11.35 10.28-11.01Q10.87-10.66 11.22-10.07Q11.57-9.47 11.57-8.78L11.57-8.78L11.57-2.59Q11.57-1.90 11.22-1.30Q10.87-0.69 10.28-0.35Q9.69 0 8.98 0L8.98 0L3.25 0Q2.56 0 1.96-0.35Q1.37-0.71 1.02-1.30Q0.68-1.90 0.68-2.59L0.68-2.59L0.68-8.78ZM7.59-1.78Q8.13-1.78 8.52-2.17Q8.91-2.56 8.91-3.10L8.91-3.10L8.91-8.25Q8.91-8.81 8.52-9.20Q8.13-9.59 7.59-9.59L7.59-9.59L4.65-9.59Q4.09-9.59 3.70-9.20Q3.32-8.81 3.32-8.25L3.32-8.25L3.32-3.10Q3.32-2.56 3.70-2.17Q4.09-1.78 4.65-1.78L4.65-1.78L7.59-1.78Z" transform="translate(123.71699999999998 66) " fill="#ffffff" stroke="#ffffff" stroke-width="0.028" data-glyph-w="12.243" data-glyph-h="19.8" data-glyph-ascender="16.5" data-glyph-descender="-3.3000000000000003"></path><path d="M8.93-3.63L8.93-11.35L11.57-11.35L11.57 0L8.93 0L3.32-7.72L3.32 0L0.68 0L0.68-11.35L3.32-11.35L8.93-3.63Z" transform="translate(135.95999999999998 66) " fill="#ffffff" stroke="#ffffff" stroke-width="0.028" data-glyph-w="12.243" data-glyph-h="19.8" data-glyph-ascender="16.5" data-glyph-descender="-3.3000000000000003"></path><path d="M3.42-11.37L3.42 0L0.78 0L0.78-11.37L3.42-11.37Z" transform="translate(148.20299999999997 66) " fill="#ffffff" stroke="#ffffff" stroke-width="0.028" data-glyph-w="4.191" data-glyph-h="19.8" data-glyph-ascender="16.5" data-glyph-descender="-3.3000000000000003"></path><path d="M0.18-11.37L11.09-11.37L11.09-9.59L6.96-9.59L6.96 0L4.31 0L4.31-9.59L0.18-9.59L0.18-11.37Z" transform="translate(152.39399999999998 66) " fill="#ffffff" stroke="#ffffff" stroke-width="0.028" data-glyph-w="11.2695" data-glyph-h="19.8" data-glyph-ascender="16.5" data-glyph-descender="-3.3000000000000003"></path><path d="M0.68-8.78Q0.68-9.47 1.02-10.07Q1.37-10.66 1.96-11.01Q2.56-11.35 3.25-11.35L3.25-11.35L8.98-11.35Q9.69-11.35 10.28-11.01Q10.87-10.66 11.22-10.07Q11.57-9.47 11.57-8.78L11.57-8.78L11.57-2.59Q11.57-1.90 11.22-1.30Q10.87-0.69 10.28-0.35Q9.69 0 8.98 0L8.98 0L3.25 0Q2.56 0 1.96-0.35Q1.37-0.71 1.02-1.30Q0.68-1.90 0.68-2.59L0.68-2.59L0.68-8.78ZM7.59-1.78Q8.13-1.78 8.52-2.17Q8.91-2.56 8.91-3.10L8.91-3.10L8.91-8.25Q8.91-8.81 8.52-9.20Q8.13-9.59 7.59-9.59L7.59-9.59L4.65-9.59Q4.09-9.59 3.70-9.20Q3.32-8.81 3.32-8.25L3.32-8.25L3.32-3.10Q3.32-2.56 3.70-2.17Q4.09-1.78 4.65-1.78L4.65-1.78L7.59-1.78Z" transform="translate(163.66349999999997 66) " fill="#ffffff" stroke="#ffffff" stroke-width="0.028" data-glyph-w="12.243" data-glyph-h="19.8" data-glyph-ascender="16.5" data-glyph-descender="-3.3000000000000003"></path><path d="M11.86-7.67Q11.86-6.63 11.35-5.78Q10.84-4.92 9.97-4.44L9.97-4.44L11.86 0L9.22 0L7.51-3.98L3.33-3.98L3.33 0L0.68 0L0.68-11.35L8.17-11.35Q9.17-11.35 10.02-10.86Q10.87-10.36 11.37-9.52Q11.86-8.68 11.86-7.67L11.86-7.67ZM3.33-9.59L3.33-5.74L7.29-5.74Q8.09-5.74 8.65-6.30Q9.22-6.86 9.22-7.67L9.22-7.67Q9.22-8.46 8.65-9.03Q8.09-9.59 7.29-9.59L7.29-9.59L3.33-9.59Z" transform="translate(175.90649999999997 66) " fill="#ffffff" stroke="#ffffff" stroke-width="0.028" data-glyph-w="12.259500000000001" data-glyph-h="19.8" data-glyph-ascender="16.5" data-glyph-descender="-3.3000000000000003"></path><path d="M3.42-11.37L3.42 0L0.78 0L0.78-11.37L3.42-11.37Z" transform="translate(188.16599999999997 66) " fill="#ffffff" stroke="#ffffff" stroke-width="0.028" data-glyph-w="4.191" data-glyph-h="19.8" data-glyph-ascender="16.5" data-glyph-descender="-3.3000000000000003"></path><path d="M8.93-3.63L8.93-11.35L11.57-11.35L11.57 0L8.93 0L3.32-7.72L3.32 0L0.68 0L0.68-11.35L3.32-11.35L8.93-3.63Z" transform="translate(192.35699999999997 66) " fill="#ffffff" stroke="#ffffff" stroke-width="0.028" data-glyph-w="12.243" data-glyph-h="19.8" data-glyph-ascender="16.5" data-glyph-descender="-3.3000000000000003"></path><path d="M5.71-9.59Q5.07-9.59 4.52-9.26Q3.98-8.94 3.65-8.40Q3.33-7.85 3.33-7.21L3.33-7.21L3.33-4.16Q3.33-3.51 3.65-2.96Q3.98-2.41 4.52-2.09Q5.07-1.77 5.71-1.77L5.71-1.77L8.93-1.77L8.93-6.37L11.57-6.37L11.57 0L4.82 0Q3.70 0 2.74-0.56Q1.78-1.12 1.23-2.08Q0.68-3.04 0.68-4.16L0.68-4.16L0.68-7.21Q0.68-8.33 1.23-9.28Q1.78-10.23 2.74-10.79Q3.70-11.35 4.82-11.35L4.82-11.35L11.57-11.35L11.57-9.59L5.71-9.59Z" transform="translate(204.59999999999997 66) " fill="#ffffff" stroke="#ffffff" stroke-width="0.028" data-glyph-w="12.243" data-glyph-h="19.8" data-glyph-ascender="16.5" data-glyph-descender="-3.3000000000000003"></path></g></svg></g></g> <g id="rectBox"><rect id="rect_shape_JZfIU9uh3q" width="92.867812399435" height="92.867812399435" transform="translate(71.56609380028249,33.44127824172) rotate(0,46.4339061997175,46.4339061997175) scale(1,1)" fill="rgba(0,0,0,0)" stroke="transparent" style="cursor: move;/* fill: #2c5d88; */"></rect><rect id="rect_shape_Jpb3xzUR1b" width="176" height="44" transform="translate(30,133.05872175828) rotate(0,88,22) scale(1,1)" fill="rgba(0,0,0,0)" stroke="transparent" style="cursor: move;" class=""></rect><rect id="rect_shape_PTgxePPlW6" width="217" height="16" transform="translate(9.5,177.05872175828) rotate(0,108.5,8) scale(1,1)" fill="rgba(0,0,0,0)" stroke="transparent" style="cursor: move;"></rect></g> <!----></svg>